<svg version="1" xmlns="http://www.w3.org/2000/svg" width="933.333" height="933.333" viewBox="0 0 700.000000 700.000000"><path d="M330.9.4c-.2.2-4.2.6-8.9 1s-9.6.8-11 1c-1.4.3-4.7.7-7.4 1.1-17.3 2.2-53 11.3-66.1 17-1.6.7-5.5 2.3-8.5 3.5-3 1.2-8.8 3.8-12.8 5.6-4 1.9-7.4 3.4-7.6 3.4-1 0-26.7 14.7-34 19.5-15.7 10.3-31.3 22.6-45.3 36l-6.3 6 20.4 20.4 20.5 20.4 3.8-3.6c8.6-8 12.3-11.1 22.8-19.2 6.1-4.6 15.1-10.9 20-14 8.1-5.1 31.5-17.2 39.1-20.2 14.7-5.8 39.7-13.2 49.9-14.7 2.2-.3 5.1-.8 6.5-1.1 12.7-2.4 21.2-3 43-3 19.6 0 31.5.6 39.5 2 34.1 6.1 51.6 11.6 78 24.5 15.9 7.7 27.7 15 41.5 25.3 9.5 7.1 12.8 9.9 22.7 19.1l5.3 4.9 20.6-20.5 20.5-20.5-9.2-8.7c-7.4-7-17.5-15.4-30.4-25.4-.5-.4-3.7-2.6-7-4.9C498.2 33.5 463 17.9 425.7 9.1c-14.3-3.4-15.1-3.6-27.4-5.5-1.6-.3-5.7-.8-9.3-1.1-3.6-.4-7.8-.9-9.5-1.2-3.4-.5-48.1-1.3-48.6-.9z"/><path d="M331 117.1c-4.7.4-11.2 1.3-14.5 1.9-3.3.7-6.9 1.4-8 1.6-1.1.2-3.2.6-4.7 1-1.5.3-3 .6-3.3.6-.2 0-3.7 1-7.7 2.3-31.4 9.9-57.5 24.5-80.5 45.2l-7.4 6.7 20.3 20.3c11.2 11.2 20.5 20.3 20.8 20.3.3 0 3-2.3 6-5 12.1-11 31.9-22.4 50.3-28.9 4.8-1.7 8.8-3 9-2.9.1.1 2.5-.4 5.2-1.1 14.9-3.5 38.3-4.7 53.5-2.7 28.6 3.9 59 18 79.8 37.2 2 1.9 3.9 3.4 4.2 3.4.3 0 9.6-9.2 20.8-20.3l20.3-20.3-7.3-6.5c-31.2-27.8-71.4-46.8-108.8-51.5-1.9-.2-4.7-.7-6.2-1-4.3-.9-32.6-1.1-41.8-.3zM257.9 263.1c-11.5 1.7-20.9 10.5-23.4 21.9-.4 1.9-.7 83.8-.7 182 0 195.4-.3 183.3 5.8 192.2 3.2 4.6 9.2 9 14.7 10.8 5.5 1.8 184.2 1.8 190.7 0 9.1-2.5 16-9.2 19.5-19 1.5-4.1 1.7-20.7 1.7-183.6 0-98.5-.3-180.6-.7-182.5-2.2-10.3-9.8-18.2-20.5-21.5-3-1-180.6-1.2-187.1-.3zm103.6 59.4c6.3 1.1 17.5 6.1 23.5 10.6 7.1 5.3 13.6 13.2 17.8 21.5 22.6 44.4-23.8 96.2-71.3 79.5-17.9-6.3-31.8-20.9-37.8-39.6-6.3-19.4.3-42.7 16.3-57.3 8-7.3 20.4-13.5 29.6-14.8 2.7-.3 5-.7 5.2-.9.5-.5 12.2.3 16.7 1z"/></svg>